{"title":"Shrek Forever After TS XViD - IMAGiNE","uid":5587633,"size":1494124566,"categoryP":"video","categoryS":"movies","magnet":"?xt=urn:btih:b798f242b621c0db5fa40269cb604b079d696e5f&amp;dn=Shrek+Forever+After+TS+XViD+-+IMAGiNE&amp;tr=udp%3A%2F%2Ftracker.openbittorrent.com%3A80&amp;tr=udp%3A%2F%2Fopen.demonii.com%3A1337&amp;tr=udp%3A%2F%2Ftracker.coppersurfer.tk%3A6969&amp;tr=udp%3A%2F%2Fexodus.desync.com%3A6969","seeders":1,"leechers":0,"uploader":"IwannaFan2","files":3,"time":1274754058,"description":"Filename:\nShrek Forever After TS XViD - IMAGiNE\n &lt;a href=&quot;\nhttp://www.imdb.com/title/tt0892791/&quot; rel=&quot;nofollow&quot; target=&quot;_NEW&quot;&gt;\nhttp://www.imdb.com/title/tt0892791/&lt;/a&gt;\n\nDETAILS:\n\nVideo\nID                               : 0\nFormat                           : MPEG-4 Visual\nFormat profile                   : Advanced Simple@L5\nFormat settings, BVOP            : Yes\nFormat settings, QPel            : No\nFormat settings, GMC             : No warppoints\nFormat settings, Matrix          : Default (MPEG)\nMuxing mode                      : Packed bitstream\nCodec ID                         : XVID\nCodec ID/Hint                    : XviD\nDuration                         : 1h 18mn\nBit rate                         : 2 362 Kbps\nWidth                            : 662 pixels\nHeight                           : 280 pixels\nDisplay aspect ratio             : 2.35:1\nFrame rate                       : 25.000 fps\nResolution                       : 8 bits\nColorimetry                      : 4:2:0\nScan type                        : Progressive\nBits/(Pixel*Frame)               : 0.510\nStream size                      : 1.29 GiB (94%)\nWriting library                  : XviD 1.2.1 (UTC 2008-12-04)\n\nAudio\nID                               : 1\nFormat                           : MPEG Audio\nFormat version                   : Version 1\nFormat profile                   : Layer 3\nCodec ID                         : 55\nCodec ID/Hint                    : MP3\nDuration                         : 1h 18mn\nBit rate mode                    : Constant\nBit rate                         : 128 Kbps\nChannel(s)                       : 2 channels\nSampling rate                    : 44.1 KHz\nStream size                      : 71.7 MiB (5%)\nAlignment                        : Split accross interleaves\nInterleave, duration             : 40 ms (1.00 video frame)\nInterleave, preload duration     : 500 ms\n\n\nNOTES:\n\nIMAGiNE bringing you another release..... Shrek Forever After\n\nFirst off many thanks to Relizlab for the video source and PrisM for the line audio... Thanks both\nWell we balanced the colours out,made it a touch sharper and also used a smoother and changed the brightness, contrast and chroma.\nThen it was just syncing PrisM's audio to it. Its surely not the best source out, but is watchable for now.","torrent":{"xt":"urn:btih:b798f242b621c0db5fa40269cb604b079d696e5f","amp;dn":"Shrek+Forever+After+TS+XViD+-+IMAGiNE","amp;tr":["udp%3A%2F%2Ftracker.openbittorrent.com%3A80","udp%3A%2F%2Fopen.demonii.com%3A1337","udp%3A%2F%2Ftracker.coppersurfer.tk%3A6969","udp%3A%2F%2Fexodus.desync.com%3A6969"],"infoHash":"b798f242b621c0db5fa40269cb604b079d696e5f","infoHashBuffer":{"type":"Buffer","data":[183,152,242,66,182,33,192,219,95,164,2,105,203,96,75,7,157,105,110,95]},"announce":[],"urlList":[]}}